<mxfile host="65bd71144e">
    <diagram id="BFTAGFj1tsDtL_0bPICc" name="Page-1">
        <mxGraphModel dx="1865" dy="731" grid="1" gridSize="10" guides="1" tooltips="1" connect="1" arrows="1" fold="1" page="1" pageScale="1" pageWidth="850" pageHeight="1100" math="0" shadow="0">
            <root>
                <mxCell id="0"/>
                <mxCell id="1" parent="0"/>
                <mxCell id="46" value="&lt;p style=&quot;line-height: 0%;&quot;&gt;&lt;/p&gt;&lt;h2&gt;&amp;nbsp; tools/&lt;/h2&gt;&lt;p&gt;&lt;/p&gt;" style="rounded=0;whiteSpace=wrap;html=1;fontSize=16;strokeWidth=2;dashed=1;align=left;verticalAlign=top;" parent="1" vertex="1">
                    <mxGeometry x="-320" y="130" width="300" height="290" as="geometry"/>
                </mxCell>
                <mxCell id="32" value="&lt;p style=&quot;line-height: 0%;&quot;&gt;&lt;/p&gt;&lt;h2&gt;&amp;nbsp; DVR/&lt;/h2&gt;&lt;p&gt;&lt;/p&gt;" style="rounded=0;whiteSpace=wrap;html=1;fontSize=16;strokeWidth=2;dashed=1;align=left;verticalAlign=bottom;" parent="1" vertex="1">
                    <mxGeometry x="55" y="550" width="740" height="140" as="geometry"/>
                </mxCell>
                <mxCell id="28" value="&lt;p style=&quot;line-height: 0%;&quot;&gt;&lt;/p&gt;&lt;h2&gt;&amp;nbsp; Hubbard/&lt;/h2&gt;&lt;p&gt;&lt;/p&gt;" style="rounded=0;whiteSpace=wrap;html=1;fontSize=16;strokeWidth=2;dashed=1;align=left;verticalAlign=top;" parent="1" vertex="1">
                    <mxGeometry x="55" y="130" width="740" height="380" as="geometry"/>
                </mxCell>
                <mxCell id="4" value="call" style="edgeStyle=none;html=1;fontSize=16;entryX=0.5;entryY=0;entryDx=0;entryDy=0;" parent="1" source="2" target="5" edge="1">
                    <mxGeometry relative="1" as="geometry">
                        <mxPoint x="415" y="240" as="targetPoint"/>
                    </mxGeometry>
                </mxCell>
                <mxCell id="55" value="call" style="edgeStyle=none;html=1;entryX=0.5;entryY=0;entryDx=0;entryDy=0;fontSize=20;" parent="1" source="2" target="53" edge="1">
                    <mxGeometry relative="1" as="geometry">
                        <Array as="points">
                            <mxPoint x="-130" y="70"/>
                        </Array>
                    </mxGeometry>
                </mxCell>
                <mxCell id="2" value="&lt;font style=&quot;font-size: 16px;&quot;&gt;Hubbard_exe.py&lt;/font&gt;" style="rounded=0;whiteSpace=wrap;html=1;" parent="1" vertex="1">
                    <mxGeometry x="345" y="40" width="140" height="50" as="geometry"/>
                </mxCell>
                <mxCell id="8" value="inherit from" style="edgeStyle=none;html=1;fontSize=16;" parent="1" source="5" target="12" edge="1">
                    <mxGeometry relative="1" as="geometry">
                        <mxPoint x="415" y="410" as="targetPoint"/>
                    </mxGeometry>
                </mxCell>
                <mxCell id="16" value="" style="edgeStyle=none;html=1;fontSize=16;" parent="1" source="5" target="15" edge="1">
                    <mxGeometry relative="1" as="geometry"/>
                </mxCell>
                <mxCell id="17" value="" style="edgeStyle=none;html=1;fontSize=16;" parent="1" source="5" target="15" edge="1">
                    <mxGeometry relative="1" as="geometry"/>
                </mxCell>
                <mxCell id="18" value="ghost info" style="edgeStyle=none;html=1;fontSize=16;" parent="1" source="5" target="15" edge="1">
                    <mxGeometry relative="1" as="geometry"/>
                </mxCell>
                <mxCell id="25" value="equalize&lt;br&gt;logger" style="edgeStyle=none;html=1;fontSize=16;" parent="1" source="5" target="24" edge="1">
                    <mxGeometry relative="1" as="geometry"/>
                </mxCell>
                <mxCell id="27" value="call" style="edgeStyle=none;html=1;fontSize=16;" parent="1" source="5" target="26" edge="1">
                    <mxGeometry relative="1" as="geometry"/>
                </mxCell>
                <mxCell id="5" value="&lt;font style=&quot;font-size: 16px;&quot;&gt;Hubbard/equalizer.py&lt;br&gt;&lt;div style=&quot;color: rgb(247, 241, 255); font-family: Consolas, &amp;quot;Courier New&amp;quot;, monospace; font-size: 18px; line-height: 24px;&quot;&gt;&lt;span style=&quot;color: rgb(166, 226, 44); text-decoration-line: underline;&quot;&gt;HubbardEqualizer&lt;/span&gt;&lt;/div&gt;&lt;/font&gt;" style="rounded=0;whiteSpace=wrap;html=1;" parent="1" vertex="1">
                    <mxGeometry x="325" y="220" width="180" height="60" as="geometry"/>
                </mxCell>
                <mxCell id="30" value="" style="edgeStyle=none;html=1;fontSize=20;" parent="1" source="9" target="29" edge="1">
                    <mxGeometry relative="1" as="geometry"/>
                </mxCell>
                <mxCell id="31" value="read" style="edgeLabel;html=1;align=center;verticalAlign=middle;resizable=0;points=[];fontSize=20;" parent="30" vertex="1" connectable="0">
                    <mxGeometry x="-0.2879" relative="1" as="geometry">
                        <mxPoint x="7" as="offset"/>
                    </mxGeometry>
                </mxCell>
                <mxCell id="9" value="&lt;span style=&quot;font-size: 16px;&quot;&gt;DVR/core.py&lt;/span&gt;&lt;br style=&quot;font-size: 16px;&quot;&gt;&lt;div style=&quot;color: rgb(247, 241, 255); background-color: rgb(22, 22, 22); font-family: Consolas, &amp;quot;Courier New&amp;quot;, monospace; font-size: 18px; line-height: 24px;&quot;&gt;&lt;span style=&quot;color: rgb(166, 226, 44); text-decoration-line: underline;&quot;&gt;DVR&lt;/span&gt;&lt;/div&gt;" style="whiteSpace=wrap;html=1;rounded=0;" parent="1" vertex="1">
                    <mxGeometry x="320" y="570" width="190" height="60" as="geometry"/>
                </mxCell>
                <mxCell id="14" value="inherit from" style="edgeStyle=none;html=1;exitX=0.5;exitY=1;exitDx=0;exitDy=0;entryX=0.5;entryY=0;entryDx=0;entryDy=0;fontSize=16;" parent="1" source="12" target="9" edge="1">
                    <mxGeometry x="0.6923" relative="1" as="geometry">
                        <mxPoint x="415" y="430" as="targetPoint"/>
                        <mxPoint as="offset"/>
                    </mxGeometry>
                </mxCell>
                <mxCell id="23" value="lattice info" style="edgeStyle=none;html=1;exitX=1;exitY=0.5;exitDx=0;exitDy=0;entryX=0;entryY=0.5;entryDx=0;entryDy=0;fontSize=16;" parent="1" source="12" target="21" edge="1">
                    <mxGeometry relative="1" as="geometry"/>
                </mxCell>
                <mxCell id="34" value="call" style="edgeStyle=none;html=1;fontSize=20;" parent="1" source="12" target="33" edge="1">
                    <mxGeometry relative="1" as="geometry"/>
                </mxCell>
                <mxCell id="44" value="call" style="edgeStyle=none;html=1;exitX=0;exitY=0.5;exitDx=0;exitDy=0;fontSize=20;" parent="1" source="12" target="42" edge="1">
                    <mxGeometry relative="1" as="geometry"/>
                </mxCell>
                <mxCell id="57" value="call" style="edgeStyle=none;html=1;exitX=0;exitY=0;exitDx=0;exitDy=0;fontSize=20;" parent="1" source="12" target="56" edge="1">
                    <mxGeometry relative="1" as="geometry"/>
                </mxCell>
                <mxCell id="12" value="Hubbard/core.py&lt;br&gt;&lt;div style=&quot;color: rgb(247, 241, 255); background-color: rgb(22, 22, 22); font-family: Consolas, &amp;quot;Courier New&amp;quot;, monospace; font-size: 18px; line-height: 24px;&quot;&gt;&lt;span style=&quot;color: rgb(166, 226, 44); text-decoration-line: underline;&quot;&gt;MLWF&lt;/span&gt;&lt;/div&gt;" style="rounded=0;whiteSpace=wrap;html=1;fontSize=16;" parent="1" vertex="1">
                    <mxGeometry x="340" y="340" width="150" height="60" as="geometry"/>
                </mxCell>
                <mxCell id="15" value="&lt;font style=&quot;font-size: 16px;&quot;&gt;Hubbard/ghost.py&lt;br&gt;&lt;div style=&quot;color: rgb(247, 241, 255); background-color: rgb(22, 22, 22); font-family: Consolas, &amp;quot;Courier New&amp;quot;, monospace; font-size: 18px; line-height: 24px;&quot;&gt;&lt;div style=&quot;line-height: 24px;&quot;&gt;&lt;span style=&quot;color: rgb(166, 226, 44); text-decoration-line: underline;&quot;&gt;GhostTrap&lt;/span&gt;&lt;/div&gt;&lt;/div&gt;&lt;/font&gt;" style="rounded=0;whiteSpace=wrap;html=1;" parent="1" vertex="1">
                    <mxGeometry x="585" y="160" width="180" height="60" as="geometry"/>
                </mxCell>
                <mxCell id="21" value="&lt;font style=&quot;font-size: 16px;&quot;&gt;Hubbard/lattice.py&lt;br&gt;&lt;div style=&quot;color: rgb(247, 241, 255); background-color: rgb(22, 22, 22); font-family: Consolas, &amp;quot;Courier New&amp;quot;, monospace; font-size: 18px; line-height: 24px;&quot;&gt;&lt;span style=&quot;color: rgb(166, 226, 44); text-decoration-line: underline;&quot;&gt;Lattice&lt;/span&gt;&lt;/div&gt;&lt;/font&gt;" style="rounded=0;whiteSpace=wrap;html=1;" parent="1" vertex="1">
                    <mxGeometry x="585" y="340" width="180" height="60" as="geometry"/>
                </mxCell>
                <mxCell id="24" value="&lt;font style=&quot;font-size: 16px;&quot;&gt;Hubbard/io.py&lt;br&gt;&lt;div style=&quot;color: rgb(247, 241, 255); background-color: rgb(22, 22, 22); font-family: Consolas, &amp;quot;Courier New&amp;quot;, monospace; font-size: 18px; line-height: 24px;&quot;&gt;&lt;div style=&quot;line-height: 24px;&quot;&gt;&lt;span style=&quot;color: rgb(166, 226, 44); text-decoration-line: underline;&quot;&gt;EqulizeInfo&lt;/span&gt;&lt;/div&gt;&lt;/div&gt;&lt;/font&gt;" style="rounded=0;whiteSpace=wrap;html=1;" parent="1" vertex="1">
                    <mxGeometry x="585" y="250" width="180" height="60" as="geometry"/>
                </mxCell>
                <mxCell id="26" value="&lt;font style=&quot;font-size: 16px;&quot;&gt;Hubbard/eqinit.py&lt;br&gt;&lt;span style=&quot;color: rgb(166, 226, 44); background-color: rgb(22, 22, 22); font-family: Consolas, &amp;quot;Courier New&amp;quot;, monospace; font-size: 18px;&quot;&gt;init_w0&amp;nbsp;&lt;/span&gt;functions&lt;br&gt;&lt;/font&gt;" style="rounded=0;whiteSpace=wrap;html=1;" parent="1" vertex="1">
                    <mxGeometry x="75" y="220" width="180" height="60" as="geometry"/>
                </mxCell>
                <mxCell id="29" value="&lt;span style=&quot;font-size: 16px;&quot;&gt;DVR/const.py&lt;br&gt;constants&lt;br&gt;&lt;/span&gt;" style="whiteSpace=wrap;html=1;rounded=0;" parent="1" vertex="1">
                    <mxGeometry x="590" y="570" width="190" height="60" as="geometry"/>
                </mxCell>
                <mxCell id="33" value="Hubbard/riemann.py&lt;br&gt;&lt;div style=&quot;color: rgb(247, 241, 255); background-color: rgb(22, 22, 22); font-family: Consolas, &amp;quot;Courier New&amp;quot;, monospace; font-size: 18px; line-height: 24px;&quot;&gt;&lt;span style=&quot;color: rgb(166, 226, 44); text-decoration-line: underline;&quot;&gt;riemann_optimize&lt;/span&gt;&lt;/div&gt;&amp;nbsp;functions" style="rounded=0;whiteSpace=wrap;html=1;fontSize=16;" parent="1" vertex="1">
                    <mxGeometry x="585" y="430" width="180" height="60" as="geometry"/>
                </mxCell>
                <mxCell id="36" value="&lt;span style=&quot;font-size: 16px;&quot;&gt;DVR/wavefunc.py&lt;/span&gt;&lt;br style=&quot;font-size: 16px;&quot;&gt;&lt;div style=&quot;color: rgb(247, 241, 255); background-color: rgb(22, 22, 22); font-family: Consolas, &amp;quot;Courier New&amp;quot;, monospace; font-size: 18px; line-height: 24px;&quot;&gt;&lt;span style=&quot;color: rgb(166, 226, 44);&quot;&gt;psi&lt;/span&gt;&lt;/div&gt;&lt;span style=&quot;font-size: 16px;&quot;&gt;&amp;nbsp;function&lt;/span&gt;" style="whiteSpace=wrap;html=1;rounded=0;" parent="1" vertex="1">
                    <mxGeometry x="70" y="570" width="190" height="60" as="geometry"/>
                </mxCell>
                <mxCell id="40" value="call" style="edgeStyle=none;html=1;fontSize=20;" parent="1" source="38" target="36" edge="1">
                    <mxGeometry relative="1" as="geometry"/>
                </mxCell>
                <mxCell id="38" value="&lt;span style=&quot;font-size: 16px;&quot;&gt;Hubbard/core.py&lt;/span&gt;&lt;br style=&quot;font-size: 16px;&quot;&gt;&lt;div style=&quot;color: rgb(247, 241, 255); background-color: rgb(22, 22, 22); font-family: Consolas, &amp;quot;Courier New&amp;quot;, monospace; font-size: 18px; line-height: 24px;&quot;&gt;&lt;div style=&quot;line-height: 24px;&quot;&gt;&lt;span style=&quot;color: #a6e22c;&quot;&gt;wannier_func&lt;/span&gt;&lt;/div&gt;&lt;/div&gt;&lt;span style=&quot;font-size: 16px;&quot;&gt;&amp;nbsp;function&lt;/span&gt;" style="whiteSpace=wrap;html=1;rounded=0;" parent="1" vertex="1">
                    <mxGeometry x="70" y="440" width="190" height="60" as="geometry"/>
                </mxCell>
                <mxCell id="43" value="call" style="edgeStyle=none;html=1;fontSize=20;" parent="1" source="42" target="38" edge="1">
                    <mxGeometry x="-0.4603" relative="1" as="geometry">
                        <mxPoint as="offset"/>
                    </mxGeometry>
                </mxCell>
                <mxCell id="52" value="call" style="edgeStyle=none;html=1;fontSize=20;" parent="1" source="42" target="50" edge="1">
                    <mxGeometry relative="1" as="geometry"/>
                </mxCell>
                <mxCell id="42" value="&lt;span style=&quot;font-size: 16px;&quot;&gt;Hubbard/core.py&lt;/span&gt;&lt;br style=&quot;font-size: 16px;&quot;&gt;&lt;div style=&quot;color: rgb(247, 241, 255); background-color: rgb(22, 22, 22); font-family: Consolas, &amp;quot;Courier New&amp;quot;, monospace; font-size: 18px; line-height: 24px;&quot;&gt;&lt;div style=&quot;line-height: 24px;&quot;&gt;&lt;span style=&quot;color: #a6e22c;&quot;&gt;interaction&lt;/span&gt;&lt;/div&gt;&lt;/div&gt;&lt;span style=&quot;font-size: 16px;&quot;&gt;&amp;nbsp;function&lt;/span&gt;" style="whiteSpace=wrap;html=1;rounded=0;" parent="1" vertex="1">
                    <mxGeometry x="70" y="340" width="190" height="60" as="geometry"/>
                </mxCell>
                <mxCell id="50" value="&lt;span style=&quot;font-size: 16px;&quot;&gt;tools/integrate.py&lt;/span&gt;&lt;br style=&quot;font-size: 16px;&quot;&gt;&lt;div style=&quot;color: rgb(247, 241, 255); background-color: rgb(22, 22, 22); font-family: Consolas, &amp;quot;Courier New&amp;quot;, monospace; font-size: 18px; line-height: 24px;&quot;&gt;&lt;div style=&quot;line-height: 24px;&quot;&gt;&lt;div style=&quot;line-height: 24px;&quot;&gt;&lt;span style=&quot;color: #a6e22c;&quot;&gt;trapz3dnp&lt;/span&gt;&lt;/div&gt;&lt;/div&gt;&lt;/div&gt;&lt;span style=&quot;font-size: 16px;&quot;&gt;&amp;nbsp;function&lt;/span&gt;" style="whiteSpace=wrap;html=1;rounded=0;" parent="1" vertex="1">
                    <mxGeometry x="-220" y="340" width="180" height="60" as="geometry"/>
                </mxCell>
                <mxCell id="53" value="&lt;span style=&quot;font-size: 16px;&quot;&gt;tools/reportIO.py&lt;/span&gt;&lt;br style=&quot;font-size: 16px;&quot;&gt;&lt;div style=&quot;color: rgb(247, 241, 255); background-color: rgb(22, 22, 22); font-family: Consolas, &amp;quot;Courier New&amp;quot;, monospace; font-size: 18px; line-height: 24px;&quot;&gt;&lt;div style=&quot;line-height: 24px;&quot;&gt;&lt;div style=&quot;line-height: 24px;&quot;&gt;&lt;span style=&quot;color: #a6e22c;&quot;&gt;&lt;u&gt;reportIO&lt;/u&gt;&lt;/span&gt;&lt;/div&gt;&lt;/div&gt;&lt;/div&gt;&lt;span style=&quot;font-size: 16px;&quot;&gt;&amp;nbsp;module&lt;/span&gt;" style="whiteSpace=wrap;html=1;rounded=0;" parent="1" vertex="1">
                    <mxGeometry x="-220" y="150" width="180" height="60" as="geometry"/>
                </mxCell>
                <mxCell id="56" value="&lt;span style=&quot;font-size: 16px;&quot;&gt;tools/point_match.py&lt;/span&gt;&lt;br style=&quot;font-size: 16px;&quot;&gt;&lt;div style=&quot;color: rgb(247, 241, 255); background-color: rgb(22, 22, 22); font-family: Consolas, &amp;quot;Courier New&amp;quot;, monospace; font-size: 18px; line-height: 24px;&quot;&gt;&lt;div style=&quot;line-height: 24px;&quot;&gt;&lt;div style=&quot;line-height: 24px;&quot;&gt;&lt;div style=&quot;line-height: 24px;&quot;&gt;&lt;span style=&quot;color: #a6e22c;&quot;&gt;nearest_match&lt;/span&gt;&lt;/div&gt;&lt;/div&gt;&lt;/div&gt;&lt;/div&gt;&lt;span style=&quot;font-size: 16px;&quot;&gt;&amp;nbsp;function&lt;/span&gt;" style="whiteSpace=wrap;html=1;rounded=0;" parent="1" vertex="1">
                    <mxGeometry x="-220" y="240" width="180" height="60" as="geometry"/>
                </mxCell>
            </root>
        </mxGraphModel>
    </diagram>
</mxfile>